<?xml version="1.0" standalone="no"?>
<!DOCTYPE svg PUBLIC "-//W3C//DTD SVG 20010904//EN"
 "http://www.w3.org/TR/2001/REC-SVG-20010904/DTD/svg10.dtd">
<svg version="1.0" xmlns="http://www.w3.org/2000/svg"
 width="700.000000pt" height="700.000000pt" viewBox="0 0 700.000000 700.000000"
 preserveAspectRatio="xMidYMid meet">
<metadata>
Created by potrace 1.14, written by Peter Selinger 2001-2017
</metadata>
<g transform="translate(0.000000,700.000000) scale(0.100000,-0.100000)"
fill="#000000" stroke="none">
<path d="M3290 6984 c-744 -50 -1403 -304 -1980 -762 -132 -105 -451 -427
-537 -542 -422 -567 -643 -1090 -728 -1721 -35 -256 -37 -644 -5 -897 65 -510
234 -973 540 -1477 73 -122 325 -430 465 -570 601 -603 1414 -962 2270 -1004
201 -10 694 25 909 65 450 83 966 316 1369 617 426 319 730 676 995 1168 198
368 344 843 382 1244 18 194 7 737 -18 907 -39 254 -95 472 -188 724 -45 122
-169 383 -236 499 -20 33 -58 99 -86 147 -79 135 -320 436 -472 589 -566 569
-1321 926 -2110 998 -126 12 -482 21 -570 15z m1743 -2146 c3 -40 4 -529 4
-1086 l-2 -1013 -1528 -2 -1527 -2 0 1088 0 1087 1524 0 1523 0 6 -72z m-1340
-2318 c1062 1 1944 -1 1959 -5 38 -10 84 -83 93 -146 8 -60 -1 -192 -17 -232
-24 -61 134 -57 -2235 -57 l-2167 0 -24 23 c-22 22 -24 33 -29 188 l-6 165 26
29 25 30 194 3 c106 1 203 4 216 7 l22 5 2 333 3 332 2 -338 3 -338 1933 1z"/>
<path d="M2933 4266 c-301 -151 -554 -279 -562 -285 -11 -7 130 -82 548 -290
309 -155 573 -281 586 -281 21 0 1145 553 1145 564 0 7 -189 106 -202 106 -6
0 -217 104 -469 230 -252 127 -467 230 -478 230 -11 0 -267 -124 -568 -274z"/>
<path d="M4606 3894 c-12 -27 -16 -67 -16 -182 -1 -101 -5 -160 -15 -187 -11
-31 -12 -47 -3 -70 8 -25 6 -47 -11 -115 -31 -125 -34 -120 52 -120 41 0 76 2
78 5 3 2 -5 87 -18 187 -15 120 -22 239 -23 344 0 127 -3 163 -14 167 -8 3
-19 -8 -30 -29z"/>
<path d="M3830 3519 c-124 -62 -256 -121 -293 -134 l-68 -22 -251 129 c-138
71 -252 127 -254 126 -2 -2 -4 -75 -5 -163 -3 -179 4 -204 63 -248 37 -28 98
-61 113 -63 6 0 40 -10 78 -22 188 -60 457 -50 659 25 88 33 156 92 168 148
10 41 26 335 19 335 -2 0 -105 -50 -229 -111z"/>
</g>
</svg>
